<svg id="visual" viewBox="0 0 675 900" width="675" height="900" xmlns="http://www.w3.org/2000/svg" xmlns:xlink="http://www.w3.org/1999/xlink" version="1.1"><rect x="0" y="0" width="675" height="900" fill="transparent"></rect><defs><linearGradient id="grad1_0" x1="0%" y1="100%" x2="100%" y2="0%"><stop offset="30%" stop-color="#ffffff" stop-opacity="1"></stop><stop offset="70%" stop-color="#ffffff" stop-opacity="1"></stop></linearGradient></defs><defs><linearGradient id="grad2_0" x1="0%" y1="100%" x2="100%" y2="0%"><stop offset="30%" stop-color="#ffffff" stop-opacity="1"></stop><stop offset="70%" stop-color="#ffffff" stop-opacity="1"></stop></linearGradient></defs><g transform="translate(675, 900)"><path d="M-478.1 0C-475.8 -69.3 -473.5 -138.5 -434.2 -179.9C-395 -221.2 -318.8 -234.5 -270.1 -270.1C-221.5 -305.7 -200.4 -363.5 -160 -386.2C-119.5 -408.9 -59.8 -396.4 0 -384L0 0Z" fill="#FAE1DD"></path></g><g transform="translate(0, 0)"><path d="M396 0C414.8 60.8 433.6 121.5 421.3 174.5C409 227.5 365.5 272.7 322.4 322.4C279.4 372.2 236.6 426.4 183 441.7C129.3 457.1 64.6 433.5 0 410L0 0Z" fill="#FAE1DD"></path></g></svg>