<svg id="visual" viewBox="0 0 900 600" width="900" height="600" xmlns="http://www.w3.org/2000/svg" xmlns:xlink="http://www.w3.org/1999/xlink" version="1.1"><rect x="0" y="0" width="900" height="600" fill="transparent"></rect><defs><linearGradient id="grad1_0" x1="33.3%" y1="0%" x2="100%" y2="100%"><stop offset="20%" stop-color="#ffffff" stop-opacity="1"></stop><stop offset="80%" stop-color="#ffffff" stop-opacity="1"></stop></linearGradient></defs><defs><linearGradient id="grad2_0" x1="0%" y1="0%" x2="66.7%" y2="100%"><stop offset="20%" stop-color="#ffffff" stop-opacity="1"></stop><stop offset="80%" stop-color="#ffffff" stop-opacity="1"></stop></linearGradient></defs><g transform="translate(900, 0)"><path d="M0 486.7C-69.6 485.5 -139.1 484.2 -186.3 449.7C-233.4 415.2 -258.1 347.4 -300.5 300.5C-342.9 253.6 -403 227.6 -437 181C-471 134.4 -478.9 67.2 -486.7 0L0 0Z" fill="#F3DCC6"></path></g><g transform="translate(0, 600)"><path d="M0 -486.7C56.8 -467.6 113.5 -448.5 177.9 -429.6C242.4 -410.7 314.5 -392.2 344.2 -344.2C373.9 -296.2 361.2 -218.8 377.9 -156.5C394.6 -94.3 440.7 -47.1 486.7 0L0 0Z" fill="#F3DCC6"></path></g></svg>