<svg id="visual" viewBox="0 0 900 675" width="900" height="675" xmlns="http://www.w3.org/2000/svg" xmlns:xlink="http://www.w3.org/1999/xlink" version="1.1"><rect x="0" y="0" width="900" height="675" fill="#FFFFFF"></rect><defs><linearGradient id="grad1_0" x1="25%" y1="0%" x2="100%" y2="100%"><stop offset="23.333333333333336%" stop-color="#ffffff" stop-opacity="1"></stop><stop offset="76.66666666666666%" stop-color="#ffffff" stop-opacity="1"></stop></linearGradient></defs><defs><linearGradient id="grad2_0" x1="0%" y1="0%" x2="75%" y2="100%"><stop offset="23.333333333333336%" stop-color="#ffffff" stop-opacity="1"></stop><stop offset="76.66666666666666%" stop-color="#ffffff" stop-opacity="1"></stop></linearGradient></defs><g transform="translate(900, 0)"><path d="M0 393.8C-20.4 375.2 -40.8 356.7 -61.8 350.6C-82.9 344.4 -104.6 350.6 -127.9 351.4C-151.2 352.3 -176.2 347.7 -191.5 331.7C-206.8 315.6 -212.5 288 -230.1 274.2C-247.7 260.5 -277.3 260.5 -295.7 248.1C-314.1 235.8 -321.2 211.1 -326.5 188.5C-331.7 165.9 -335 145.4 -346.7 126.2C-358.4 107 -378.5 89.2 -387.8 68.4C-397 47.6 -395.4 23.8 -393.7 0L0 0Z" fill="#F8F4F0"></path></g><g transform="translate(0, 675)"><path d="M0 -393.7C22.2 -387.7 44.3 -381.6 66 -374.2C87.6 -366.9 108.8 -358.3 125.5 -344.9C142.3 -331.5 154.6 -313.3 178.5 -309.2C202.4 -305.1 237.8 -315.1 253.1 -301.6C268.4 -288.2 263.7 -251.3 275 -230.8C286.3 -210.2 313.6 -206 333.4 -192.5C353.3 -179 365.7 -156.4 364.6 -132.7C363.5 -109 349 -84.3 351.6 -62C354.2 -39.7 374 -19.9 393.8 0L0 0Z" fill="#F8F4F0"></path></g></svg>