<svg id="visual" viewBox="0 0 675 900" width="675" height="900" xmlns="http://www.w3.org/2000/svg" xmlns:xlink="http://www.w3.org/1999/xlink" version="1.1"><rect x="0" y="0" width="675" height="900" fill="#fff"></rect><defs><linearGradient id="grad1_0" x1="0%" y1="0%" x2="100%" y2="100%"><stop offset="30%" stop-color="#ffffff" stop-opacity="1"></stop><stop offset="70%" stop-color="#ffffff" stop-opacity="1"></stop></linearGradient></defs><defs><linearGradient id="grad2_0" x1="0%" y1="0%" x2="100%" y2="100%"><stop offset="30%" stop-color="#ffffff" stop-opacity="1"></stop><stop offset="70%" stop-color="#ffffff" stop-opacity="1"></stop></linearGradient></defs><g transform="translate(675, 0)"><path d="M0 467C-36.3 470.6 -72.5 474.1 -106.1 465C-139.8 456 -170.8 434.3 -198.7 412.6C-226.7 391 -251.6 369.3 -276.8 347.1C-302 324.9 -327.5 302.2 -346.4 276.2C-365.2 250.2 -377.4 221 -400.9 193.1C-424.5 165.1 -459.4 138.4 -466.1 106.4C-472.9 74.4 -451.4 37.2 -430 0L0 0Z" fill="#DCD8E0"></path></g><g transform="translate(0, 900)"><path d="M0 -438C31.7 -432.9 63.5 -427.9 97.5 -427C131.5 -426.2 167.7 -429.5 203.9 -423.5C240.1 -417.4 276.2 -402.1 298.1 -373.8C320 -345.6 327.7 -304.4 340.9 -271.8C354 -239.3 372.7 -215.3 391.9 -188.7C411.2 -162.1 431 -132.9 442.6 -101C454.2 -69.1 457.6 -34.6 461 0L0 0Z" fill="#DCD8E0"></path></g></svg>