<svg id="visual" viewBox="0 0 900 600" width="900" height="600" xmlns="http://www.w3.org/2000/svg" xmlns:xlink="http://www.w3.org/1999/xlink" version="1.1"><rect x="0" y="0" width="900" height="600" fill="transparent"></rect><defs><linearGradient id="grad1_0" x1="33.3%" y1="100%" x2="100%" y2="0%"><stop offset="20%" stop-color="#ffffff" stop-opacity="1"></stop><stop offset="80%" stop-color="#ffffff" stop-opacity="1"></stop></linearGradient></defs><defs><linearGradient id="grad2_0" x1="0%" y1="100%" x2="66.7%" y2="0%"><stop offset="20%" stop-color="#ffffff" stop-opacity="1"></stop><stop offset="80%" stop-color="#ffffff" stop-opacity="1"></stop></linearGradient></defs><g transform="translate(900, 600)"><path d="M-432.7 0C-429.3 -45.5 -426 -91.1 -411.5 -133.7C-397 -176.3 -371.4 -216.1 -339 -246.3C-306.6 -276.5 -267.4 -297.2 -231 -317.9C-194.6 -338.7 -161 -359.4 -123 -378.5C-85 -397.6 -42.5 -415.2 0 -432.7L0 0Z" fill="#D9E3EA"></path></g><g transform="translate(0, 0)"><path d="M432.7 0C431.8 47.5 431 95.1 409 132.9C386.9 170.7 343.6 198.8 309.9 225.1C276.1 251.5 251.8 276.2 225.7 310.7C199.6 345.2 171.6 389.5 133.7 411.5C95.8 433.5 47.9 433.1 0 432.7L0 0Z" fill="#D9E3EA"></path></g></svg>